<?xml version="1.0" encoding="utf-8"?>
<!-- Generator: Adobe Illustrator 17.1.0, SVG Export Plug-In . SVG Version: 6.00 Build 0)  -->
<!DOCTYPE svg PUBLIC "-//W3C//DTD SVG 1.1//EN" "http://www.w3.org/Graphics/SVG/1.1/DTD/svg11.dtd">
<svg version="1.1" id="svg-twitter" xmlns="http://www.w3.org/2000/svg" xmlns:xlink="http://www.w3.org/1999/xlink" x="0px"
	 y="0px" viewBox="0 0 512 512" enable-background="new 0 0 512 512" xml:space="preserve">
<g>
	<path d="M496,106.9c-13.8,20-30.2,37.1-49.4,51.3c0.4,2.9,0.6,7.3,0.6,13.1c0,33.3-6.3,66.3-18.8,98.8
		s-30.1,62.4-52.8,89.7s-52.3,49.4-88.8,66.3s-76.4,25.3-119.7,25.3c-53.8,0-104.2-14.8-151.3-44.4c15,1.3,22.9,1.9,23.8,1.9
		c45,0,85.6-14.2,121.9-42.5c-21.3-0.4-40.3-7-57.2-19.7S76,317.6,69.8,297.6c5.4,1.3,11.7,1.9,18.8,1.9c9.2,0,17.9-1.3,26.3-3.8
		c-22.9-4.6-41.9-15.7-56.9-33.4s-22.5-38.4-22.5-62.2v-1.3c14.6,7.5,29.4,11.5,44.4,11.9c-29.2-20-43.8-47.3-43.8-81.9
		c0-17.1,4.4-33.8,13.1-50c25,30.4,55.1,54.8,90.3,73.1s72.8,28.3,112.8,30c-1.7-9.2-2.5-16.7-2.5-22.5c0-27.1,9.6-50.3,28.8-69.7
		s42.3-29.1,69.4-29.1c28.3,0,52.5,10.6,72.5,31.9c20.8-4.2,41.5-12.3,61.9-24.4c-7.1,24.2-21.3,42.5-42.5,55
		C458.1,120.7,476.8,115.3,496,106.9z"/>
</g>
</svg>
