<?xml version="1.0" encoding="utf-8"?>
<!-- Generator: Adobe Illustrator 17.1.0, SVG Export Plug-In . SVG Version: 6.00 Build 0)  -->
<!DOCTYPE svg PUBLIC "-//W3C//DTD SVG 1.1//EN" "http://www.w3.org/Graphics/SVG/1.1/DTD/svg11.dtd">
<svg version="1.1" id="レイヤー_1" xmlns="http://www.w3.org/2000/svg" xmlns:xlink="http://www.w3.org/1999/xlink" x="0px"
	 y="0px" viewBox="0 0 512 512" enable-background="new 0 0 512 512" xml:space="preserve">
<g>
	<path d="M255.3,22.6c68.3,0,126.3,19.5,174.1,58.4S501,166.9,501,221.8c0,51.6-22.7,97.7-68.1,138.3c-31,30.6-69.6,60.4-115.7,89.5
		c-46.1,29.1-72.7,42.3-79.9,39.4c-5.7-2.4-7.6-8.2-5.7-17.6c1.9-9.3,4.7-18.5,8.2-27.6c3.6-9.1,3-17.2-1.8-24.4
		c-0.5-0.5-8.6-1.9-24.4-4.3c-59.7-8.1-108.4-30.1-146.1-65.9S11,270.7,11,221.1c0-54.9,23.8-101.7,71.3-140.4
		S187.5,22.6,255.3,22.6z M115.6,287.7h41.5c7.6,0,11.5-4.3,11.5-12.9c0-7.6-4.3-11.5-12.9-11.5H122c-1.9,0-2.9-4.3-2.9-12.9v-72.4
		c0-8.6-4.1-12.9-12.2-12.9s-12.2,4.3-12.2,12.9v87.4c0,9.1,1.8,15,5.4,17.9C103.8,286.3,108.9,287.7,115.6,287.7z M209.4,277.7
		v-99.6c0-3.3-1.2-6.3-3.6-9c-2.4-2.6-5.5-3.9-9.3-3.9c-3.3,0-6.2,1.3-8.6,3.9s-3.6,5.6-3.6,9v99.6c0,7.6,4.3,11.5,12.9,11.5
		c3.3,0,6.2-1.1,8.6-3.2C208.2,283.7,209.4,281,209.4,277.7z M326.9,264v-87.4c0-7.6-4.3-11.5-12.9-11.5c-8.1,0-12.2,3.8-12.2,11.5
		v63l-41.5-58c-6.2-11-13.4-16.5-21.5-16.5c-7.6,0-11.5,6.9-11.5,20.8v91.7c0,7.6,4.1,11.5,12.2,11.5s12.2-3.8,12.2-11.5v-65.2
		l41.5,58c1,1.4,2.5,3.6,4.7,6.4c2.1,2.9,3.6,4.8,4.3,5.7s1.9,2,3.6,3.2c1.7,1.2,3.2,2,4.7,2.5c1.4,0.5,3.3,0.7,5.7,0.7
		C323.3,289.1,326.9,280.8,326.9,264z M407.2,214.6h-36.5v-20.8c0-3.3,1.4-5,4.3-5h32.2c8.6,0,12.9-4.1,12.9-12.2
		s-4.5-12.2-13.6-12.2h-41.5c-12.9,0-19.3,6.7-19.3,20.1v81c0,14.8,6.4,22.2,19.3,22.2h42.3c8.6,0,12.9-4.3,12.9-12.9
		c0-8.1-4.3-12.2-12.9-12.2h-31.5c-3.3,0-5-1.4-5-4.3v-20.1h38c7.2,0,10.7-4.1,10.7-12.2C419.3,218.4,415.3,214.6,407.2,214.6z"/>
</g>
</svg>
